<mxfile host="app.diagrams.net" modified="2021-02-08T05:14:00.110Z" agent="5.0 (Windows NT 10.0; Win64; x64) AppleWebKit/537.36 (KHTML, like Gecko) Chrome/88.0.4324.104 Safari/537.36" etag="Zvdav0BcJvvvNG8tUaJC" version="14.2.9" type="github">
  <diagram name="Page-1" id="03018318-947c-dd8e-b7a3-06fadd420f32">
    <mxGraphModel dx="1736" dy="984" grid="1" gridSize="10" guides="1" tooltips="1" connect="1" arrows="1" fold="1" page="1" pageScale="1" pageWidth="1100" pageHeight="850" background="#ffffff" math="0" shadow="0">
      <root>
        <mxCell id="0" />
        <mxCell id="1" parent="0" />
        <mxCell id="677b7b8949515195-1" value="" style="whiteSpace=wrap;html=1;rounded=0;shadow=0;labelBackgroundColor=none;strokeColor=#000000;strokeWidth=1;fillColor=none;fontFamily=Verdana;fontSize=12;fontColor=#000000;align=center;comic=1;" parent="1" vertex="1">
          <mxGeometry x="20" y="20" width="1060" height="810" as="geometry" />
        </mxCell>
        <mxCell id="677b7b8949515195-15" value="&lt;div style=&quot;text-align: justify&quot;&gt;&lt;br&gt;&lt;/div&gt;" style="whiteSpace=wrap;html=1;rounded=0;shadow=0;labelBackgroundColor=none;strokeWidth=1;fillColor=none;fontFamily=Verdana;fontSize=12;align=center;verticalAlign=top;spacing=10;comic=1;" parent="1" vertex="1">
          <mxGeometry x="300" y="520" width="480" height="50" as="geometry" />
        </mxCell>
        <mxCell id="677b7b8949515195-16" value="" style="verticalLabelPosition=bottom;shadow=0;dashed=0;align=center;html=1;verticalAlign=top;strokeWidth=1;shape=mxgraph.mockup.graphics.simpleIcon;strokeColor=#999999;rounded=0;labelBackgroundColor=none;fontFamily=Verdana;fontSize=14;fontColor=#000000;comic=1;" parent="1" vertex="1">
          <mxGeometry x="250" y="80" width="580" height="400" as="geometry" />
        </mxCell>
        <mxCell id="x8Flp7f0XBzD0KfRIPuf-1" value="&lt;div style=&quot;text-align: justify&quot;&gt;&lt;br&gt;&lt;/div&gt;" style="whiteSpace=wrap;html=1;rounded=0;shadow=0;labelBackgroundColor=none;strokeWidth=1;fillColor=none;fontFamily=Verdana;fontSize=12;align=center;verticalAlign=top;spacing=10;comic=1;" vertex="1" parent="1">
          <mxGeometry x="300" y="590" width="480" height="50" as="geometry" />
        </mxCell>
        <mxCell id="x8Flp7f0XBzD0KfRIPuf-2" value="&lt;div style=&quot;text-align: justify&quot;&gt;&lt;span style=&quot;font-size: 20px&quot;&gt;Google&lt;/span&gt;&lt;/div&gt;" style="whiteSpace=wrap;html=1;rounded=0;shadow=0;labelBackgroundColor=none;strokeWidth=1;fillColor=#0050ef;fontFamily=Verdana;fontSize=12;align=center;verticalAlign=top;spacing=10;comic=1;strokeColor=#001DBC;fontColor=#ffffff;" vertex="1" parent="1">
          <mxGeometry x="320" y="690" width="220" height="50" as="geometry" />
        </mxCell>
        <mxCell id="x8Flp7f0XBzD0KfRIPuf-3" value="&lt;div style=&quot;text-align: justify&quot;&gt;&lt;span style=&quot;font-size: 20px&quot;&gt;Cadastre-se&lt;/span&gt;&lt;/div&gt;" style="whiteSpace=wrap;html=1;rounded=0;shadow=0;labelBackgroundColor=none;strokeWidth=1;fillColor=#e51400;fontFamily=Verdana;fontSize=12;align=center;verticalAlign=top;spacing=10;comic=1;strokeColor=#B20000;fontColor=#ffffff;" vertex="1" parent="1">
          <mxGeometry x="580" y="690" width="180" height="50" as="geometry" />
        </mxCell>
        <mxCell id="x8Flp7f0XBzD0KfRIPuf-4" value="Te" style="whiteSpace=wrap;html=1;rounded=0;shadow=0;labelBackgroundColor=none;strokeColor=#000000;strokeWidth=1;fillColor=none;fontFamily=Verdana;fontSize=12;fontColor=#000000;align=center;comic=1;" vertex="1" parent="1">
          <mxGeometry x="20" y="890" width="1060" height="810" as="geometry" />
        </mxCell>
        <mxCell id="x8Flp7f0XBzD0KfRIPuf-5" value="&lt;div style=&quot;text-align: justify&quot;&gt;&lt;font style=&quot;font-size: 30px&quot;&gt;Logo&lt;/font&gt;&lt;/div&gt;" style="whiteSpace=wrap;html=1;rounded=0;shadow=0;labelBackgroundColor=none;strokeWidth=1;fillColor=none;fontFamily=Verdana;fontSize=12;align=center;verticalAlign=top;spacing=10;comic=1;" vertex="1" parent="1">
          <mxGeometry x="50" y="920" width="310" height="100" as="geometry" />
        </mxCell>
        <mxCell id="x8Flp7f0XBzD0KfRIPuf-6" value="&lt;div style=&quot;text-align: justify&quot;&gt;&lt;br&gt;&lt;/div&gt;" style="whiteSpace=wrap;html=1;rounded=0;shadow=0;labelBackgroundColor=none;strokeWidth=1;fillColor=none;fontFamily=Verdana;fontSize=12;align=center;verticalAlign=top;spacing=10;comic=1;" vertex="1" parent="1">
          <mxGeometry x="300" y="1150" width="480" height="50" as="geometry" />
        </mxCell>
        <mxCell id="x8Flp7f0XBzD0KfRIPuf-7" value="&lt;div style=&quot;text-align: justify&quot;&gt;&lt;span style=&quot;font-size: 20px&quot;&gt;Sair&lt;/span&gt;&lt;/div&gt;" style="whiteSpace=wrap;html=1;rounded=0;shadow=0;labelBackgroundColor=none;strokeWidth=1;fillColor=#e51400;fontFamily=Verdana;fontSize=12;align=center;verticalAlign=top;spacing=10;comic=1;strokeColor=#B20000;fontColor=#ffffff;" vertex="1" parent="1">
          <mxGeometry x="820" y="1610" width="180" height="50" as="geometry" />
        </mxCell>
        <mxCell id="x8Flp7f0XBzD0KfRIPuf-8" value="&lt;div style=&quot;text-align: justify&quot;&gt;&lt;span style=&quot;font-size: 20px&quot;&gt;Salvar&lt;/span&gt;&lt;/div&gt;" style="whiteSpace=wrap;html=1;rounded=0;shadow=0;labelBackgroundColor=none;strokeWidth=1;fillColor=#0050ef;fontFamily=Verdana;fontSize=12;align=center;verticalAlign=top;spacing=10;comic=1;strokeColor=#001DBC;fontColor=#ffffff;" vertex="1" parent="1">
          <mxGeometry x="100" y="1610" width="220" height="50" as="geometry" />
        </mxCell>
        <mxCell id="x8Flp7f0XBzD0KfRIPuf-9" value="&lt;div style=&quot;text-align: justify&quot;&gt;&lt;br&gt;&lt;/div&gt;" style="whiteSpace=wrap;html=1;rounded=0;shadow=0;labelBackgroundColor=none;strokeWidth=1;fillColor=none;fontFamily=Verdana;fontSize=12;align=center;verticalAlign=top;spacing=10;comic=1;" vertex="1" parent="1">
          <mxGeometry x="300" y="1230" width="480" height="50" as="geometry" />
        </mxCell>
        <mxCell id="x8Flp7f0XBzD0KfRIPuf-10" value="&lt;div style=&quot;text-align: justify&quot;&gt;&lt;br&gt;&lt;/div&gt;" style="whiteSpace=wrap;html=1;rounded=0;shadow=0;labelBackgroundColor=none;strokeWidth=1;fillColor=none;fontFamily=Verdana;fontSize=12;align=center;verticalAlign=top;spacing=10;comic=1;" vertex="1" parent="1">
          <mxGeometry x="300" y="1310" width="480" height="50" as="geometry" />
        </mxCell>
        <mxCell id="x8Flp7f0XBzD0KfRIPuf-11" value="&lt;div style=&quot;text-align: justify&quot;&gt;&lt;br&gt;&lt;/div&gt;" style="whiteSpace=wrap;html=1;rounded=0;shadow=0;labelBackgroundColor=none;strokeWidth=1;fillColor=none;fontFamily=Verdana;fontSize=12;align=center;verticalAlign=top;spacing=10;comic=1;" vertex="1" parent="1">
          <mxGeometry x="300" y="1390" width="480" height="50" as="geometry" />
        </mxCell>
        <mxCell id="x8Flp7f0XBzD0KfRIPuf-12" value="Te" style="whiteSpace=wrap;html=1;rounded=0;shadow=0;labelBackgroundColor=none;strokeColor=#000000;strokeWidth=1;fillColor=none;fontFamily=Verdana;fontSize=12;fontColor=#000000;align=center;comic=1;" vertex="1" parent="1">
          <mxGeometry x="40" y="1740" width="1060" height="810" as="geometry" />
        </mxCell>
        <mxCell id="x8Flp7f0XBzD0KfRIPuf-13" value="&lt;div style=&quot;text-align: justify&quot;&gt;&lt;font style=&quot;font-size: 30px&quot;&gt;Logo&lt;/font&gt;&lt;/div&gt;" style="whiteSpace=wrap;html=1;rounded=0;shadow=0;labelBackgroundColor=none;strokeWidth=1;fillColor=none;fontFamily=Verdana;fontSize=12;align=center;verticalAlign=top;spacing=10;comic=1;" vertex="1" parent="1">
          <mxGeometry x="80" y="1780" width="310" height="100" as="geometry" />
        </mxCell>
        <mxCell id="x8Flp7f0XBzD0KfRIPuf-14" value="" style="shape=link;html=1;width=14;" edge="1" parent="1">
          <mxGeometry width="100" relative="1" as="geometry">
            <mxPoint x="920" y="1830" as="sourcePoint" />
            <mxPoint x="1020" y="1830" as="targetPoint" />
          </mxGeometry>
        </mxCell>
        <mxCell id="x8Flp7f0XBzD0KfRIPuf-15" value="" style="shape=link;html=1;width=14;" edge="1" parent="1">
          <mxGeometry width="100" relative="1" as="geometry">
            <mxPoint x="920" y="1860" as="sourcePoint" />
            <mxPoint x="1020" y="1860" as="targetPoint" />
          </mxGeometry>
        </mxCell>
        <mxCell id="x8Flp7f0XBzD0KfRIPuf-17" value="" style="whiteSpace=wrap;html=1;aspect=fixed;" vertex="1" parent="1">
          <mxGeometry x="80" y="1920" width="430" height="430" as="geometry" />
        </mxCell>
        <mxCell id="x8Flp7f0XBzD0KfRIPuf-18" value="&lt;span style=&quot;color: rgba(0 , 0 , 0 , 0) ; font-family: monospace ; font-size: 0px&quot;&gt;%3CmxGraphModel%3E%3Croot%3E%3CmxCell%20id%3D%220%22%2F%3E%3CmxCell%20id%3D%221%22%20parent%3D%220%22%2F%3E%3CmxCell%20id%3D%222%22%20value%3D%22%26lt%3Bb%26gt%3B%26lt%3Bfont%20style%3D%26quot%3Bfont-size%3A%2025px%26quot%3B%26gt%3BPedidos%26lt%3B%2Ffont%26gt%3B%26lt%3B%2Fb%26gt%3B%22%20style%3D%22text%3Bhtml%3D1%3BstrokeColor%3Dnone%3BfillColor%3Dnone%3Balign%3Dcenter%3BverticalAlign%3Dmiddle%3BwhiteSpace%3Dwrap%3Brounded%3D0%3B%22%20vertex%3D%221%22%20parent%3D%221%22%3E%3CmxGeometry%20x%3D%22775%22%20y%3D%221940%22%20width%3D%2240%22%20height%3D%2250%22%20as%3D%22geometry%22%2F%3E%3C%2FmxCell%3E%3C%2Froot%3E%3C%2FmxGraphModel%3E&lt;/span&gt;" style="whiteSpace=wrap;html=1;aspect=fixed;" vertex="1" parent="1">
          <mxGeometry x="580" y="1920" width="430" height="430" as="geometry" />
        </mxCell>
        <mxCell id="x8Flp7f0XBzD0KfRIPuf-21" value="&lt;h1&gt;Atari-Burguer&lt;/h1&gt;&lt;p&gt;Lorem ipsum dolor sit amet, consectetur adipisicing elit, sed do eiusmod tempor incididunt ut labore et dolore magna aliqua.&lt;/p&gt;" style="text;html=1;strokeColor=none;fillColor=none;spacing=5;spacingTop=-20;whiteSpace=wrap;overflow=hidden;rounded=0;" vertex="1" parent="1">
          <mxGeometry x="100" y="1940" width="190" height="120" as="geometry" />
        </mxCell>
        <mxCell id="x8Flp7f0XBzD0KfRIPuf-24" value="&lt;h1&gt;Atari-Vegano&lt;/h1&gt;&lt;p&gt;Lorem ipsum dolor sit amet, consectetur adipisicing elit, sed do eiusmod tempor incididunt ut labore et dolore magna aliqua.&lt;/p&gt;" style="text;html=1;strokeColor=none;fillColor=none;spacing=5;spacingTop=-20;whiteSpace=wrap;overflow=hidden;rounded=0;" vertex="1" parent="1">
          <mxGeometry x="300" y="1940" width="190" height="120" as="geometry" />
        </mxCell>
        <mxCell id="x8Flp7f0XBzD0KfRIPuf-25" value="&lt;h1&gt;Heading&lt;/h1&gt;&lt;p&gt;Lorem ipsum dolor sit amet, consectetur adipisicing elit, sed do eiusmod tempor incididunt ut labore et dolore magna aliqua.&lt;/p&gt;" style="text;html=1;strokeColor=none;fillColor=none;spacing=5;spacingTop=-20;whiteSpace=wrap;overflow=hidden;rounded=0;" vertex="1" parent="1">
          <mxGeometry x="100" y="2070" width="190" height="120" as="geometry" />
        </mxCell>
        <mxCell id="x8Flp7f0XBzD0KfRIPuf-26" value="&lt;h1&gt;Heading&lt;/h1&gt;&lt;p&gt;Lorem ipsum dolor sit amet, consectetur adipisicing elit, sed do eiusmod tempor incididunt ut labore et dolore magna aliqua.&lt;/p&gt;" style="text;html=1;strokeColor=none;fillColor=none;spacing=5;spacingTop=-20;whiteSpace=wrap;overflow=hidden;rounded=0;" vertex="1" parent="1">
          <mxGeometry x="300" y="2060" width="190" height="120" as="geometry" />
        </mxCell>
        <mxCell id="x8Flp7f0XBzD0KfRIPuf-27" value="&lt;h1&gt;Heading&lt;/h1&gt;&lt;p&gt;Lorem ipsum dolor sit amet, consectetur adipisicing elit, sed do eiusmod tempor incididunt ut labore et dolore magna aliqua.&lt;/p&gt;" style="text;html=1;strokeColor=none;fillColor=none;spacing=5;spacingTop=-20;whiteSpace=wrap;overflow=hidden;rounded=0;" vertex="1" parent="1">
          <mxGeometry x="100" y="2200" width="190" height="120" as="geometry" />
        </mxCell>
        <mxCell id="x8Flp7f0XBzD0KfRIPuf-28" value="&lt;h1&gt;Heading&lt;/h1&gt;&lt;p&gt;Lorem ipsum dolor sit amet, consectetur adipisicing elit, sed do eiusmod tempor incididunt ut labore et dolore magna aliqua.&lt;/p&gt;" style="text;html=1;strokeColor=none;fillColor=none;spacing=5;spacingTop=-20;whiteSpace=wrap;overflow=hidden;rounded=0;" vertex="1" parent="1">
          <mxGeometry x="300" y="2190" width="190" height="120" as="geometry" />
        </mxCell>
        <mxCell id="x8Flp7f0XBzD0KfRIPuf-29" value="&lt;span style=&quot;font-size: 20px&quot;&gt;&lt;b&gt;&lt;font color=&quot;#ff2d0d&quot;&gt;X&amp;nbsp; &lt;/font&gt;|&lt;font color=&quot;#ff2d0d&quot;&gt; O&lt;/font&gt;&lt;/b&gt;&lt;/span&gt;" style="rounded=0;whiteSpace=wrap;html=1;align=center;" vertex="1" parent="1">
          <mxGeometry x="200" y="2050" width="70" height="30" as="geometry" />
        </mxCell>
        <mxCell id="x8Flp7f0XBzD0KfRIPuf-30" value="&lt;span style=&quot;font-size: 20px&quot;&gt;&lt;b&gt;&lt;font color=&quot;#ff2d0d&quot;&gt;X&amp;nbsp; &lt;/font&gt;|&lt;font color=&quot;#ff2d0d&quot;&gt; O&lt;/font&gt;&lt;/b&gt;&lt;/span&gt;" style="rounded=0;whiteSpace=wrap;html=1;align=center;" vertex="1" parent="1">
          <mxGeometry x="200" y="2180" width="70" height="30" as="geometry" />
        </mxCell>
        <mxCell id="x8Flp7f0XBzD0KfRIPuf-31" value="&lt;span style=&quot;font-size: 20px&quot;&gt;&lt;b&gt;&lt;font color=&quot;#ff2d0d&quot;&gt;X&amp;nbsp; &lt;/font&gt;|&lt;font color=&quot;#ff2d0d&quot;&gt; O&lt;/font&gt;&lt;/b&gt;&lt;/span&gt;" style="rounded=0;whiteSpace=wrap;html=1;align=center;" vertex="1" parent="1">
          <mxGeometry x="200" y="2310" width="70" height="30" as="geometry" />
        </mxCell>
        <mxCell id="x8Flp7f0XBzD0KfRIPuf-32" value="&lt;span style=&quot;font-size: 20px&quot;&gt;&lt;b&gt;&lt;font color=&quot;#ff2d0d&quot;&gt;X&amp;nbsp; &lt;/font&gt;|&lt;font color=&quot;#ff2d0d&quot;&gt; O&lt;/font&gt;&lt;/b&gt;&lt;/span&gt;" style="rounded=0;whiteSpace=wrap;html=1;align=center;" vertex="1" parent="1">
          <mxGeometry x="410" y="2050" width="70" height="30" as="geometry" />
        </mxCell>
        <mxCell id="x8Flp7f0XBzD0KfRIPuf-33" value="&lt;span style=&quot;font-size: 20px&quot;&gt;&lt;b&gt;&lt;font color=&quot;#ff2d0d&quot;&gt;X&amp;nbsp; &lt;/font&gt;|&lt;font color=&quot;#ff2d0d&quot;&gt; O&lt;/font&gt;&lt;/b&gt;&lt;/span&gt;" style="rounded=0;whiteSpace=wrap;html=1;align=center;" vertex="1" parent="1">
          <mxGeometry x="410" y="2170" width="70" height="30" as="geometry" />
        </mxCell>
        <mxCell id="x8Flp7f0XBzD0KfRIPuf-34" value="&lt;span style=&quot;font-size: 20px&quot;&gt;&lt;b&gt;&lt;font color=&quot;#ff2d0d&quot;&gt;X&amp;nbsp; &lt;/font&gt;|&lt;font color=&quot;#ff2d0d&quot;&gt; O&lt;/font&gt;&lt;/b&gt;&lt;/span&gt;" style="rounded=0;whiteSpace=wrap;html=1;align=center;" vertex="1" parent="1">
          <mxGeometry x="410" y="2310" width="70" height="30" as="geometry" />
        </mxCell>
        <mxCell id="x8Flp7f0XBzD0KfRIPuf-39" value="&lt;span style=&quot;font-size: 20px&quot;&gt;&lt;b&gt;&lt;font color=&quot;#ff2d0d&quot;&gt;X&amp;nbsp; &lt;/font&gt;|&lt;font color=&quot;#ff2d0d&quot;&gt; O&lt;/font&gt;&lt;/b&gt;&lt;/span&gt;" style="rounded=0;whiteSpace=wrap;html=1;align=center;" vertex="1" parent="1">
          <mxGeometry x="700" y="2050" width="70" height="30" as="geometry" />
        </mxCell>
        <mxCell id="x8Flp7f0XBzD0KfRIPuf-49" value="&lt;span style=&quot;font-size: 20px&quot;&gt;&lt;b&gt;&lt;font color=&quot;#ff2d0d&quot;&gt;X&amp;nbsp; &lt;/font&gt;|&lt;font color=&quot;#ff2d0d&quot;&gt; O&lt;/font&gt;&lt;/b&gt;&lt;/span&gt;" style="rounded=0;whiteSpace=wrap;html=1;align=center;" vertex="1" parent="1">
          <mxGeometry x="690" y="2180" width="70" height="30" as="geometry" />
        </mxCell>
        <mxCell id="x8Flp7f0XBzD0KfRIPuf-52" value="&lt;div style=&quot;text-align: justify&quot;&gt;&lt;span style=&quot;font-size: 20px&quot;&gt;Sair&lt;/span&gt;&lt;/div&gt;" style="whiteSpace=wrap;html=1;rounded=0;shadow=0;labelBackgroundColor=none;strokeWidth=1;fillColor=#e51400;fontFamily=Verdana;fontSize=12;align=center;verticalAlign=top;spacing=10;comic=1;strokeColor=#B20000;fontColor=#ffffff;" vertex="1" parent="1">
          <mxGeometry x="80" y="2470" width="180" height="50" as="geometry" />
        </mxCell>
        <mxCell id="x8Flp7f0XBzD0KfRIPuf-55" value="&lt;div style=&quot;text-align: justify&quot;&gt;&lt;span style=&quot;font-size: 20px&quot;&gt;Finalizar Pedido&lt;/span&gt;&lt;/div&gt;" style="whiteSpace=wrap;html=1;rounded=0;shadow=0;labelBackgroundColor=none;strokeWidth=1;fillColor=#0050ef;fontFamily=Verdana;fontSize=12;align=center;verticalAlign=top;spacing=10;comic=1;strokeColor=#001DBC;fontColor=#ffffff;" vertex="1" parent="1">
          <mxGeometry x="790" y="2470" width="220" height="50" as="geometry" />
        </mxCell>
        <mxCell id="x8Flp7f0XBzD0KfRIPuf-56" value="&lt;span style=&quot;font-size: 25px&quot;&gt;&lt;b&gt;Total:&amp;nbsp; &amp;nbsp; &amp;nbsp; &amp;nbsp; &amp;nbsp; &amp;nbsp; R$ 79,80&lt;/b&gt;&lt;/span&gt;" style="rounded=0;whiteSpace=wrap;html=1;align=left;" vertex="1" parent="1">
          <mxGeometry x="721" y="2380" width="290" height="60" as="geometry" />
        </mxCell>
        <mxCell id="x8Flp7f0XBzD0KfRIPuf-57" value="Te" style="whiteSpace=wrap;html=1;rounded=0;shadow=0;labelBackgroundColor=none;strokeColor=#000000;strokeWidth=1;fillColor=none;fontFamily=Verdana;fontSize=12;fontColor=#000000;align=center;comic=1;" vertex="1" parent="1">
          <mxGeometry x="30" y="2600" width="1060" height="810" as="geometry" />
        </mxCell>
        <mxCell id="x8Flp7f0XBzD0KfRIPuf-58" value="" style="whiteSpace=wrap;html=1;aspect=fixed;" vertex="1" parent="1">
          <mxGeometry x="80" y="2780" width="450" height="450" as="geometry" />
        </mxCell>
        <mxCell id="x8Flp7f0XBzD0KfRIPuf-61" value="&lt;div style=&quot;text-align: justify&quot;&gt;&lt;font style=&quot;font-size: 30px&quot;&gt;Logo&lt;/font&gt;&lt;/div&gt;" style="whiteSpace=wrap;html=1;rounded=0;shadow=0;labelBackgroundColor=none;strokeWidth=1;fillColor=none;fontFamily=Verdana;fontSize=12;align=center;verticalAlign=top;spacing=10;comic=1;" vertex="1" parent="1">
          <mxGeometry x="80" y="2640" width="310" height="100" as="geometry" />
        </mxCell>
        <mxCell id="x8Flp7f0XBzD0KfRIPuf-63" value="&lt;div style=&quot;text-align: justify&quot;&gt;&lt;span style=&quot;font-size: 20px&quot;&gt;Sair&lt;/span&gt;&lt;/div&gt;" style="whiteSpace=wrap;html=1;rounded=0;shadow=0;labelBackgroundColor=none;strokeWidth=1;fillColor=#e51400;fontFamily=Verdana;fontSize=12;align=center;verticalAlign=top;spacing=10;comic=1;strokeColor=#B20000;fontColor=#ffffff;" vertex="1" parent="1">
          <mxGeometry x="80" y="3330" width="180" height="50" as="geometry" />
        </mxCell>
        <mxCell id="x8Flp7f0XBzD0KfRIPuf-64" value="&lt;div style=&quot;text-align: justify&quot;&gt;&lt;span style=&quot;font-size: 20px&quot;&gt;Finalizar Pedido&lt;/span&gt;&lt;/div&gt;" style="whiteSpace=wrap;html=1;rounded=0;shadow=0;labelBackgroundColor=none;strokeWidth=1;fillColor=#0050ef;fontFamily=Verdana;fontSize=12;align=center;verticalAlign=top;spacing=10;comic=1;strokeColor=#001DBC;fontColor=#ffffff;" vertex="1" parent="1">
          <mxGeometry x="791" y="3330" width="220" height="50" as="geometry" />
        </mxCell>
        <mxCell id="x8Flp7f0XBzD0KfRIPuf-65" value="&lt;h1&gt;Atari-Burguer&lt;/h1&gt;&lt;p&gt;Lorem ipsum dolor sit amet, consectetur adipisicing elit, sed do eiusmod tempor incididunt ut labore et dolore magna aliqua.&lt;/p&gt;" style="text;html=1;strokeColor=none;fillColor=none;spacing=5;spacingTop=-20;whiteSpace=wrap;overflow=hidden;rounded=0;" vertex="1" parent="1">
          <mxGeometry x="100" y="2800" width="190" height="120" as="geometry" />
        </mxCell>
        <mxCell id="x8Flp7f0XBzD0KfRIPuf-66" value="&lt;h1&gt;Atari-Vegano&lt;/h1&gt;&lt;p&gt;Lorem ipsum dolor sit amet, consectetur adipisicing elit, sed do eiusmod tempor incididunt ut labore et dolore magna aliqua.&lt;/p&gt;" style="text;html=1;strokeColor=none;fillColor=none;spacing=5;spacingTop=-20;whiteSpace=wrap;overflow=hidden;rounded=0;" vertex="1" parent="1">
          <mxGeometry x="300" y="2800" width="190" height="120" as="geometry" />
        </mxCell>
        <mxCell id="x8Flp7f0XBzD0KfRIPuf-67" value="&lt;span style=&quot;font-size: 20px&quot;&gt;&lt;b&gt;&lt;font color=&quot;#ff2d0d&quot;&gt;X&amp;nbsp; &lt;/font&gt;|&lt;font color=&quot;#ff2d0d&quot;&gt; O&lt;/font&gt;&lt;/b&gt;&lt;/span&gt;" style="rounded=0;whiteSpace=wrap;html=1;align=center;" vertex="1" parent="1">
          <mxGeometry x="210" y="2915" width="70" height="30" as="geometry" />
        </mxCell>
        <mxCell id="x8Flp7f0XBzD0KfRIPuf-68" value="&lt;span style=&quot;font-size: 20px&quot;&gt;&lt;b&gt;&lt;font color=&quot;#ff2d0d&quot;&gt;X&amp;nbsp; &lt;/font&gt;|&lt;font color=&quot;#ff2d0d&quot;&gt; O&lt;/font&gt;&lt;/b&gt;&lt;/span&gt;" style="rounded=0;whiteSpace=wrap;html=1;align=center;" vertex="1" parent="1">
          <mxGeometry x="410" y="2910" width="70" height="30" as="geometry" />
        </mxCell>
        <mxCell id="x8Flp7f0XBzD0KfRIPuf-69" value="&lt;h1&gt;Heading&lt;/h1&gt;&lt;p&gt;Lorem ipsum dolor sit amet, consectetur adipisicing elit, sed do eiusmod tempor incididunt ut labore et dolore magna aliqua.&lt;/p&gt;" style="text;html=1;strokeColor=none;fillColor=none;spacing=5;spacingTop=-20;whiteSpace=wrap;overflow=hidden;rounded=0;" vertex="1" parent="1">
          <mxGeometry x="100" y="2940" width="190" height="120" as="geometry" />
        </mxCell>
        <mxCell id="x8Flp7f0XBzD0KfRIPuf-70" value="&lt;h1&gt;Heading&lt;/h1&gt;&lt;p&gt;Lorem ipsum dolor sit amet, consectetur adipisicing elit, sed do eiusmod tempor incididunt ut labore et dolore magna aliqua.&lt;/p&gt;" style="text;html=1;strokeColor=none;fillColor=none;spacing=5;spacingTop=-20;whiteSpace=wrap;overflow=hidden;rounded=0;" vertex="1" parent="1">
          <mxGeometry x="300" y="2945" width="190" height="120" as="geometry" />
        </mxCell>
        <mxCell id="x8Flp7f0XBzD0KfRIPuf-71" value="&lt;span style=&quot;font-size: 20px&quot;&gt;&lt;b&gt;&lt;font color=&quot;#ff2d0d&quot;&gt;X&amp;nbsp; &lt;/font&gt;|&lt;font color=&quot;#ff2d0d&quot;&gt; O&lt;/font&gt;&lt;/b&gt;&lt;/span&gt;" style="rounded=0;whiteSpace=wrap;html=1;align=center;" vertex="1" parent="1">
          <mxGeometry x="210" y="3050" width="70" height="30" as="geometry" />
        </mxCell>
        <mxCell id="x8Flp7f0XBzD0KfRIPuf-72" value="&lt;span style=&quot;font-size: 20px&quot;&gt;&lt;b&gt;&lt;font color=&quot;#ff2d0d&quot;&gt;X&amp;nbsp; &lt;/font&gt;|&lt;font color=&quot;#ff2d0d&quot;&gt; O&lt;/font&gt;&lt;/b&gt;&lt;/span&gt;" style="rounded=0;whiteSpace=wrap;html=1;align=center;" vertex="1" parent="1">
          <mxGeometry x="410" y="3050" width="70" height="30" as="geometry" />
        </mxCell>
        <mxCell id="x8Flp7f0XBzD0KfRIPuf-73" value="" style="whiteSpace=wrap;html=1;aspect=fixed;" vertex="1" parent="1">
          <mxGeometry x="580" y="2780" width="450" height="450" as="geometry" />
        </mxCell>
        <mxCell id="x8Flp7f0XBzD0KfRIPuf-76" value="&lt;h1&gt;Heading&lt;/h1&gt;&lt;p&gt;Lorem ipsum dolor sit amet, consectetur adipisicing elit, sed do eiusmod tempor incididunt ut labore et dolore magna aliqua.&lt;/p&gt;" style="text;html=1;strokeColor=none;fillColor=none;spacing=5;spacingTop=-20;whiteSpace=wrap;overflow=hidden;rounded=0;" vertex="1" parent="1">
          <mxGeometry x="100" y="3070" width="190" height="120" as="geometry" />
        </mxCell>
        <mxCell id="x8Flp7f0XBzD0KfRIPuf-77" value="&lt;h1&gt;Heading&lt;/h1&gt;&lt;p&gt;Lorem ipsum dolor sit amet, consectetur adipisicing elit, sed do eiusmod tempor incididunt ut labore et dolore magna aliqua.&lt;/p&gt;" style="text;html=1;strokeColor=none;fillColor=none;spacing=5;spacingTop=-20;whiteSpace=wrap;overflow=hidden;rounded=0;" vertex="1" parent="1">
          <mxGeometry x="310" y="3070" width="190" height="120" as="geometry" />
        </mxCell>
        <mxCell id="x8Flp7f0XBzD0KfRIPuf-78" value="&lt;span style=&quot;font-size: 20px&quot;&gt;&lt;b&gt;&lt;font color=&quot;#ff2d0d&quot;&gt;X&amp;nbsp; &lt;/font&gt;|&lt;font color=&quot;#ff2d0d&quot;&gt; O&lt;/font&gt;&lt;/b&gt;&lt;/span&gt;" style="rounded=0;whiteSpace=wrap;html=1;align=center;" vertex="1" parent="1">
          <mxGeometry x="210" y="3180" width="70" height="30" as="geometry" />
        </mxCell>
        <mxCell id="x8Flp7f0XBzD0KfRIPuf-79" value="&lt;span style=&quot;font-size: 20px&quot;&gt;&lt;b&gt;&lt;font color=&quot;#ff2d0d&quot;&gt;X&amp;nbsp; &lt;/font&gt;|&lt;font color=&quot;#ff2d0d&quot;&gt; O&lt;/font&gt;&lt;/b&gt;&lt;/span&gt;" style="rounded=0;whiteSpace=wrap;html=1;align=center;" vertex="1" parent="1">
          <mxGeometry x="410" y="3190" width="70" height="30" as="geometry" />
        </mxCell>
        <mxCell id="x8Flp7f0XBzD0KfRIPuf-83" value="&lt;b&gt;&lt;font style=&quot;font-size: 25px&quot;&gt;Pedidos&lt;/font&gt;&lt;/b&gt;" style="text;html=1;strokeColor=none;fillColor=none;align=center;verticalAlign=middle;whiteSpace=wrap;rounded=0;" vertex="1" parent="1">
          <mxGeometry x="800" y="2790" width="40" height="50" as="geometry" />
        </mxCell>
        <mxCell id="x8Flp7f0XBzD0KfRIPuf-84" value="&lt;b&gt;&lt;font style=&quot;font-size: 25px&quot;&gt;Items&lt;/font&gt;&lt;/b&gt;" style="text;html=1;strokeColor=none;fillColor=none;align=center;verticalAlign=middle;whiteSpace=wrap;rounded=0;" vertex="1" parent="1">
          <mxGeometry x="630" y="2835" width="40" height="50" as="geometry" />
        </mxCell>
        <mxCell id="x8Flp7f0XBzD0KfRIPuf-85" value="&lt;b&gt;&lt;font style=&quot;font-size: 25px&quot;&gt;Quant.&lt;/font&gt;&lt;/b&gt;&lt;span style=&quot;color: rgba(0 , 0 , 0 , 0) ; font-family: monospace ; font-size: 0px&quot;&gt;%3CmxGraphModel%3E%3Croot%3E%3CmxCell%20id%3D%220%22%2F%3E%3CmxCell%20id%3D%221%22%20parent%3D%220%22%2F%3E%3CmxCell%20id%3D%222%22%20value%3D%22%26lt%3Bb%26gt%3B%26lt%3Bfont%20style%3D%26quot%3Bfont-size%3A%2025px%26quot%3B%26gt%3BPedidos%26lt%3B%2Ffont%26gt%3B%26lt%3B%2Fb%26gt%3B%22%20style%3D%22text%3Bhtml%3D1%3BstrokeColor%3Dnone%3BfillColor%3Dnone%3Balign%3Dcenter%3BverticalAlign%3Dmiddle%3BwhiteSpace%3Dwrap%3Brounded%3D0%3B%22%20vertex%3D%221%22%20parent%3D%221%22%3E%3CmxGeometry%20x%3D%22775%22%20y%3D%221940%22%20width%3D%2240%22%20height%3D%2250%22%20as%3D%22geometry%22%2F%3E%3C%2FmxCell%3E%3C%2Froot%3E%3C%2FmxGraphModel%3E&lt;/span&gt;" style="text;html=1;strokeColor=none;fillColor=none;align=center;verticalAlign=middle;whiteSpace=wrap;rounded=0;" vertex="1" parent="1">
          <mxGeometry x="800" y="2835" width="40" height="50" as="geometry" />
        </mxCell>
        <mxCell id="x8Flp7f0XBzD0KfRIPuf-86" value="&lt;b&gt;&lt;font style=&quot;font-size: 25px&quot;&gt;Total&lt;/font&gt;&lt;/b&gt;" style="text;html=1;strokeColor=none;fillColor=none;align=center;verticalAlign=middle;whiteSpace=wrap;rounded=0;" vertex="1" parent="1">
          <mxGeometry x="930" y="2835" width="40" height="50" as="geometry" />
        </mxCell>
        <mxCell id="x8Flp7f0XBzD0KfRIPuf-87" value="&lt;h1&gt;Atari-Vegano&lt;/h1&gt;&lt;p&gt;Lorem ipsum dolor sit amet, consectetur adipisicing elit, sed do eiusmod tempor incididunt ut labore et dolore magna aliqua.&lt;/p&gt;" style="text;html=1;strokeColor=none;fillColor=none;spacing=5;spacingTop=-20;whiteSpace=wrap;overflow=hidden;rounded=0;" vertex="1" parent="1">
          <mxGeometry x="590" y="2885" width="190" height="120" as="geometry" />
        </mxCell>
        <mxCell id="x8Flp7f0XBzD0KfRIPuf-88" value="&lt;h1&gt;Atari-Burguer&lt;/h1&gt;&lt;p&gt;Lorem ipsum dolor sit amet, consectetur adipisicing elit, sed do eiusmod tempor incididunt ut labore et dolore magna aliqua.&lt;/p&gt;" style="text;html=1;strokeColor=none;fillColor=none;spacing=5;spacingTop=-20;whiteSpace=wrap;overflow=hidden;rounded=0;" vertex="1" parent="1">
          <mxGeometry x="590" y="3020" width="190" height="120" as="geometry" />
        </mxCell>
        <mxCell id="x8Flp7f0XBzD0KfRIPuf-89" value="&lt;b&gt;&lt;font style=&quot;font-size: 25px&quot;&gt;4un&lt;/font&gt;&lt;/b&gt;" style="text;html=1;strokeColor=none;fillColor=none;align=center;verticalAlign=middle;whiteSpace=wrap;rounded=0;" vertex="1" parent="1">
          <mxGeometry x="785" y="3055" width="40" height="50" as="geometry" />
        </mxCell>
        <mxCell id="x8Flp7f0XBzD0KfRIPuf-90" value="&lt;b style=&quot;font-family: &amp;#34;helvetica&amp;#34; ; text-align: center&quot;&gt;&lt;font style=&quot;font-size: 25px&quot;&gt;R$ 53,20&lt;/font&gt;&lt;/b&gt;" style="text;whiteSpace=wrap;html=1;" vertex="1" parent="1">
          <mxGeometry x="890" y="3060" width="130" height="30" as="geometry" />
        </mxCell>
        <mxCell id="x8Flp7f0XBzD0KfRIPuf-91" value="&lt;span style=&quot;font-size: 20px&quot;&gt;&lt;b&gt;&lt;font color=&quot;#ff2d0d&quot;&gt;X&amp;nbsp; &lt;/font&gt;|&lt;font color=&quot;#ff2d0d&quot;&gt; O&lt;/font&gt;&lt;/b&gt;&lt;/span&gt;" style="rounded=0;whiteSpace=wrap;html=1;align=center;" vertex="1" parent="1">
          <mxGeometry x="690" y="2990" width="70" height="30" as="geometry" />
        </mxCell>
        <mxCell id="x8Flp7f0XBzD0KfRIPuf-92" value="&lt;span style=&quot;font-size: 20px&quot;&gt;&lt;b&gt;&lt;font color=&quot;#ff2d0d&quot;&gt;X&amp;nbsp; &lt;/font&gt;|&lt;font color=&quot;#ff2d0d&quot;&gt; O&lt;/font&gt;&lt;/b&gt;&lt;/span&gt;" style="rounded=0;whiteSpace=wrap;html=1;align=center;" vertex="1" parent="1">
          <mxGeometry x="690" y="3130" width="70" height="30" as="geometry" />
        </mxCell>
        <mxCell id="x8Flp7f0XBzD0KfRIPuf-93" value="&lt;b&gt;&lt;font style=&quot;font-size: 25px&quot;&gt;2un&lt;/font&gt;&lt;/b&gt;" style="text;html=1;strokeColor=none;fillColor=none;align=center;verticalAlign=middle;whiteSpace=wrap;rounded=0;" vertex="1" parent="1">
          <mxGeometry x="800" y="2925" width="40" height="50" as="geometry" />
        </mxCell>
        <mxCell id="x8Flp7f0XBzD0KfRIPuf-94" value="&lt;b&gt;&lt;font style=&quot;font-size: 25px&quot;&gt;R$ 26,60&lt;/font&gt;&lt;/b&gt;" style="text;html=1;strokeColor=none;fillColor=none;align=center;verticalAlign=middle;whiteSpace=wrap;rounded=0;" vertex="1" parent="1">
          <mxGeometry x="885" y="2925" width="110" height="50" as="geometry" />
        </mxCell>
        <mxCell id="x8Flp7f0XBzD0KfRIPuf-95" value="&lt;span style=&quot;font-size: 25px&quot;&gt;&lt;b&gt;Total:&amp;nbsp; &amp;nbsp; &amp;nbsp; &amp;nbsp; &amp;nbsp; &amp;nbsp; R$ 79,80&lt;/b&gt;&lt;/span&gt;" style="rounded=0;whiteSpace=wrap;html=1;align=left;" vertex="1" parent="1">
          <mxGeometry x="740" y="3250" width="290" height="60" as="geometry" />
        </mxCell>
        <mxCell id="x8Flp7f0XBzD0KfRIPuf-97" value="&lt;h1&gt;Atari-Vegano&lt;/h1&gt;&lt;p&gt;Lorem ipsum dolor sit amet, consectetur adipisicing elit, sed do eiusmod tempor incididunt ut labore et dolore magna aliqua.&lt;/p&gt;" style="text;html=1;strokeColor=none;fillColor=none;spacing=5;spacingTop=-20;whiteSpace=wrap;overflow=hidden;rounded=0;" vertex="1" parent="1">
          <mxGeometry x="595" y="1940" width="190" height="120" as="geometry" />
        </mxCell>
        <mxCell id="x8Flp7f0XBzD0KfRIPuf-98" value="&lt;h1&gt;Heading&lt;/h1&gt;&lt;p&gt;Lorem ipsum dolor sit amet, consectetur adipisicing elit, sed do eiusmod tempor incididunt ut labore et dolore magna aliqua.&lt;/p&gt;" style="text;html=1;strokeColor=none;fillColor=none;spacing=5;spacingTop=-20;whiteSpace=wrap;overflow=hidden;rounded=0;" vertex="1" parent="1">
          <mxGeometry x="590" y="2070" width="190" height="120" as="geometry" />
        </mxCell>
        <mxCell id="x8Flp7f0XBzD0KfRIPuf-99" value="&lt;h1&gt;Heading&lt;/h1&gt;&lt;p&gt;Lorem ipsum dolor sit amet, consectetur adipisicing elit, sed do eiusmod tempor incididunt ut labore et dolore magna aliqua.&lt;/p&gt;" style="text;html=1;strokeColor=none;fillColor=none;spacing=5;spacingTop=-20;whiteSpace=wrap;overflow=hidden;rounded=0;" vertex="1" parent="1">
          <mxGeometry x="590" y="2210" width="190" height="120" as="geometry" />
        </mxCell>
        <mxCell id="x8Flp7f0XBzD0KfRIPuf-100" value="&lt;span style=&quot;font-size: 20px&quot;&gt;&lt;b&gt;&lt;font color=&quot;#ff2d0d&quot;&gt;X&amp;nbsp; &lt;/font&gt;|&lt;font color=&quot;#ff2d0d&quot;&gt; O&lt;/font&gt;&lt;/b&gt;&lt;/span&gt;" style="rounded=0;whiteSpace=wrap;html=1;align=center;" vertex="1" parent="1">
          <mxGeometry x="690" y="2320" width="70" height="30" as="geometry" />
        </mxCell>
        <mxCell id="x8Flp7f0XBzD0KfRIPuf-101" value="&lt;h1&gt;Heading&lt;/h1&gt;&lt;p&gt;Lorem ipsum dolor sit amet, consectetur adipisicing elit, sed do eiusmod tempor incididunt ut labore et dolore magna aliqua.&lt;/p&gt;" style="text;html=1;strokeColor=none;fillColor=none;spacing=5;spacingTop=-20;whiteSpace=wrap;overflow=hidden;rounded=0;" vertex="1" parent="1">
          <mxGeometry x="800" y="1940" width="190" height="120" as="geometry" />
        </mxCell>
        <mxCell id="x8Flp7f0XBzD0KfRIPuf-102" value="&lt;span style=&quot;font-size: 20px&quot;&gt;&lt;b&gt;&lt;font color=&quot;#ff2d0d&quot;&gt;X&amp;nbsp; &lt;/font&gt;|&lt;font color=&quot;#ff2d0d&quot;&gt; O&lt;/font&gt;&lt;/b&gt;&lt;/span&gt;" style="rounded=0;whiteSpace=wrap;html=1;align=center;" vertex="1" parent="1">
          <mxGeometry x="915" y="2050" width="70" height="30" as="geometry" />
        </mxCell>
        <mxCell id="x8Flp7f0XBzD0KfRIPuf-103" value="&lt;h1&gt;Heading&lt;/h1&gt;&lt;p&gt;Lorem ipsum dolor sit amet, consectetur adipisicing elit, sed do eiusmod tempor incididunt ut labore et dolore magna aliqua.&lt;/p&gt;" style="text;html=1;strokeColor=none;fillColor=none;spacing=5;spacingTop=-20;whiteSpace=wrap;overflow=hidden;rounded=0;" vertex="1" parent="1">
          <mxGeometry x="795" y="2085" width="190" height="120" as="geometry" />
        </mxCell>
        <mxCell id="x8Flp7f0XBzD0KfRIPuf-104" value="&lt;span style=&quot;font-size: 20px&quot;&gt;&lt;b&gt;&lt;font color=&quot;#ff2d0d&quot;&gt;X&amp;nbsp; &lt;/font&gt;|&lt;font color=&quot;#ff2d0d&quot;&gt; O&lt;/font&gt;&lt;/b&gt;&lt;/span&gt;" style="rounded=0;whiteSpace=wrap;html=1;align=center;" vertex="1" parent="1">
          <mxGeometry x="915" y="2200" width="70" height="30" as="geometry" />
        </mxCell>
        <mxCell id="x8Flp7f0XBzD0KfRIPuf-105" value="&lt;h1&gt;Heading&lt;/h1&gt;&lt;p&gt;Lorem ipsum dolor sit amet, consectetur adipisicing elit, sed do eiusmod tempor incididunt ut labore et dolore magna aliqua.&lt;/p&gt;" style="text;html=1;strokeColor=none;fillColor=none;spacing=5;spacingTop=-20;whiteSpace=wrap;overflow=hidden;rounded=0;" vertex="1" parent="1">
          <mxGeometry x="795" y="2220" width="190" height="120" as="geometry" />
        </mxCell>
        <mxCell id="x8Flp7f0XBzD0KfRIPuf-106" value="&lt;span style=&quot;font-size: 20px&quot;&gt;&lt;b&gt;&lt;font color=&quot;#ff2d0d&quot;&gt;X&amp;nbsp; &lt;/font&gt;|&lt;font color=&quot;#ff2d0d&quot;&gt; O&lt;/font&gt;&lt;/b&gt;&lt;/span&gt;" style="rounded=0;whiteSpace=wrap;html=1;align=center;" vertex="1" parent="1">
          <mxGeometry x="915" y="2320" width="70" height="30" as="geometry" />
        </mxCell>
      </root>
    </mxGraphModel>
  </diagram>
</mxfile>
